HIERARCHY
ROOT joint_Root
{
	OFFSET 0.0 0.0 0.0
	CHANNELS 6 Xposition Yposition Zposition Zrotation Xrotation Yrotation 
	JOINT Hips
	{
		OFFSET 4.5925 91.4895 -427.239
		CHANNELS 6 Xposition Yposition Zposition Zrotation Xrotation Yrotation 
		JOINT Spine
		{
			OFFSET 15.7357 0.0 0.0
			CHANNELS 6 Xposition Yposition Zposition Zrotation Xrotation Yrotation 
			JOINT Chest
			{
				OFFSET 8.98455 -0.406207 0.0
				CHANNELS 6 Xposition Yposition Zposition Zrotation Xrotation Yrotation 
				JOINT Neck
				{
					OFFSET 16.3773 0.0 0.0
					CHANNELS 6 Xposition Yposition Zposition Zrotation Xrotation Yrotation 
					JOINT Head
					{
						OFFSET 6.45672 0.0 0.0
						CHANNELS 6 Xposition Yposition Zposition Zrotation Xrotation Yrotation 
						End Site
						{
							OFFSET 0.0 0.0 0.0
						}
					}
				}
				JOINT Shoulder_L
				{
					OFFSET 12.9942 -0.242716 4.98039
					CHANNELS 6 Xposition Yposition Zposition Zrotation Xrotation Yrotation 
					JOINT UpperArm_L
					{
						OFFSET 5.34809 0.0 0.0
						CHANNELS 6 Xposition Yposition Zposition Zrotation Xrotation Yrotation 
						JOINT LowerArm_L
						{
							OFFSET 24.3286 1.87007e-05 0.0
							CHANNELS 6 Xposition Yposition Zposition Zrotation Xrotation Yrotation 
							JOINT Hand_L
							{
								OFFSET 22.2916 0.0 0.0
								CHANNELS 6 Xposition Yposition Zposition Zrotation Xrotation Yrotation 
								End Site
								{
									OFFSET 0.0 0.0 0.0
								}
							}
						}
					}
				}
				JOINT Shoulder_R
				{
					OFFSET 12.9945 -0.242716 -4.98039
					CHANNELS 6 Xposition Yposition Zposition Zrotation Xrotation Yrotation 
					JOINT UpperArm_R
					{
						OFFSET -5.34813 0.0 0.0
						CHANNELS 6 Xposition Yposition Zposition Zrotation Xrotation Yrotation 
						JOINT LowerArm_R
						{
							OFFSET -24.3289 0.000322201 0.0
							CHANNELS 6 Xposition Yposition Zposition Zrotation Xrotation Yrotation 
							JOINT Hand_R
							{
								OFFSET -22.2915 -0.000108084 0.0
								CHANNELS 6 Xposition Yposition Zposition Zrotation Xrotation Yrotation 
								End Site
								{
									OFFSET 0.0 0.0 0.0
								}
							}
						}
					}
				}
			}
		}
		JOINT UpperLeg_L
		{
			OFFSET -2.19248 -6.46944 0.0
			CHANNELS 6 Xposition Yposition Zposition Zrotation Xrotation Yrotation 
			JOINT LowerLeg_L
			{
				OFFSET 39.0811 0.0 -1.23785e-05
				CHANNELS 6 Xposition Yposition Zposition Zrotation Xrotation Yrotation 
				JOINT Foot_L
				{
					OFFSET 40.9854 0.0 -1.26872e-05
					CHANNELS 6 Xposition Yposition Zposition Zrotation Xrotation Yrotation 
					JOINT Toes_L
					{
						OFFSET 11.7543 0.0 0.0
						CHANNELS 6 Xposition Yposition Zposition Zrotation Xrotation Yrotation 
						End Site
						{
							OFFSET 0.0 0.0 0.0
						}
					}
				}
			}
		}
		JOINT UpperLeg_R
		{
			OFFSET -2.19251 6.46944 0.0
			CHANNELS 6 Xposition Yposition Zposition Zrotation Xrotation Yrotation 
			JOINT LowerLeg_R
			{
				OFFSET -39.0811 -0.00228153 -0.0401928
				CHANNELS 6 Xposition Yposition Zposition Zrotation Xrotation Yrotation 
				JOINT Foot_R
				{
					OFFSET -40.9854 0.0 0.0
					CHANNELS 6 Xposition Yposition Zposition Zrotation Xrotation Yrotation 
					JOINT Toes_R
					{
						OFFSET -11.7543 0.0 0.0
						CHANNELS 6 Xposition Yposition Zposition Zrotation Xrotation Yrotation 
						End Site
						{
							OFFSET 0.0 0.0 0.0
						}
					}
				}
			}
		}
	}
}
MOTION
Frames:	8
Frame Time:	0.0333333
0.000000 0.000000 0.000000 0.000000 0.000000 -0.000000 127.232000 88.601600 142.366000 93.281800 -38.454100 7.164420 15.735700 0.000005 -0.000001 85.842200 80.221800 -87.580100 8.984550 -0.406207 -0.000000 11.721600 -1.465960 -3.324300 16.377300 -0.000001 -0.000001 1.965490 -19.188000 3.636630 6.456720 -0.000001 -0.000000 -0.742849 -25.746100 7.859280 12.994200 -0.242716 4.980390 -90.885400 3.117740 -74.137900 5.348090 -0.000007 -0.000001 -60.376400 30.410600 -21.359400 24.328600 0.000019 0.000005 5.552380 14.683300 -20.984700 22.291600 -0.000001 0.000005 13.612000 5.134560 4.311530 12.994500 -0.242716 -4.980390 88.720800 9.032400 -81.904800 -5.348130 -0.000001 -0.000004 -62.268000 30.478300 -15.371200 -24.328900 0.000322 -0.000009 -1.104370 -2.099460 -27.723300 -22.291500 -0.000108 -0.000004 18.085300 5.428240 -3.877170 -2.192480 -6.469440 -0.000000 -177.903000 -8.787330 -17.087200 39.081100 -0.000007 -0.000012 -0.204704 0.242400 40.181200 40.985400 -0.000006 -0.000013 -2.119470 2.913780 -67.766800 11.754300 -0.000000 0.000003 -0.000108 -0.001100 -16.619700 -2.192510 6.469440 -0.000001 176.422000 6.030100 160.764000 -39.081100 -0.002282 -0.040193 0.154724 -0.059887 68.443400 -40.985400 0.000008 0.000006 3.393230 -0.004841 -59.184700 -11.754300 -0.000006 -0.000006 -0.014191 -0.132659 -21.984300
0.000000 0.000000 0.000000 0.000000 0.000000 -0.000000 126.541000 88.945500 143.921000 92.738500 -39.994200 6.509290 15.735700 0.000005 -0.000001 85.071800 80.264700 -86.635900 8.984550 -0.406207 -0.000000 11.614600 -1.711320 -2.953190 16.377300 -0.000001 -0.000001 1.536700 -18.868300 3.452380 6.456720 -0.000001 -0.000000 -0.993389 -25.122000 7.930980 12.994200 -0.242716 4.980390 -90.860200 3.079740 -74.385900 5.348090 -0.000007 -0.000001 -58.791300 29.062100 -23.582500 24.328600 0.000019 0.000005 5.413440 12.801200 -23.158000 22.291600 -0.000001 0.000005 14.549000 5.152360 3.887940 12.994500 -0.242716 -4.980390 88.694800 9.209830 -81.898300 -5.348130 -0.000001 -0.000004 -62.518700 31.212400 -14.704200 -24.328900 0.000322 -0.000009 -0.552601 -1.116500 -26.284400 -22.291500 -0.000108 -0.000004 17.411900 5.417540 -3.516410 -2.192480 -6.469440 -0.000000 -177.491000 -9.693520 -15.453800 39.081100 -0.000007 -0.000012 -0.217450 0.266514 39.211600 40.985400 -0.000006 -0.000013 -2.169170 2.324660 -68.733400 11.754300 -0.000000 0.000003 -0.000119 -0.001194 -16.623200 -2.192510 6.469440 -0.000001 177.852000 9.520630 158.312000 -39.081100 -0.002282 -0.040193 0.148111 -0.061073 67.154600 -40.985400 0.000008 0.000006 4.380390 -3.520070 -60.213300 -11.754300 -0.000006 -0.000006 -0.013157 -0.125880 -21.706300
0.000000 0.000000 0.000000 0.000000 0.000000 -0.000000 125.802000 89.352000 145.367000 92.357100 -41.626900 5.866040 15.735700 0.000005 -0.000001 84.709100 80.327800 -86.134700 8.984550 -0.406207 -0.000000 11.478900 -1.815530 -2.667810 16.377300 -0.000001 -0.000001 1.240650 -18.473200 3.289180 6.456720 -0.000001 -0.000000 -1.216620 -24.662900 8.402580 12.994200 -0.242716 4.980390 -90.769600 2.798180 -74.616000 5.348090 -0.000007 -0.000001 -57.585900 27.716300 -25.711200 24.328600 0.000019 0.000005 5.320810 11.481400 -25.075200 22.291600 -0.000001 0.000005 15.191100 5.164190 3.601730 12.994500 -0.242716 -4.980390 88.702500 9.166790 -81.908300 -5.348130 -0.000001 -0.000004 -63.288500 31.399900 -13.615500 -24.328900 0.000322 -0.000009 -0.408442 -0.875447 -24.958300 -22.291500 -0.000108 -0.000004 17.095300 5.415960 -3.463380 -2.192480 -6.469440 -0.000000 -177.197000 -10.676200 -13.637200 39.081100 -0.000007 -0.000012 -0.220149 0.285362 37.649700 40.985400 -0.000006 -0.000013 -2.293190 1.722700 -69.358500 11.754300 -0.000000 0.000003 -0.000125 -0.001241 -16.624900 -2.192510 6.469440 -0.000001 179.562000 12.768800 156.836000 -39.081100 -0.002282 -0.040193 0.120682 -0.061755 62.274200 -40.985400 0.000008 0.000006 4.966560 -4.435240 -61.532400 -11.754300 -0.000006 -0.000006 -0.014066 -0.131855 -21.951400
0.000000 0.000000 0.000000 0.000000 0.000000 -0.000000 125.051000 89.662600 146.725000 92.164500 -43.404400 5.209010 15.735700 0.000005 -0.000001 84.555200 80.434500 -85.897500 8.984550 -0.406207 -0.000000 11.262500 -1.842000 -2.501930 16.377300 -0.000001 -0.000001 0.890316 -18.112500 3.115210 6.456720 -0.000001 -0.000000 -1.265850 -24.190300 8.865620 12.994200 -0.242716 4.980390 -90.684700 2.506400 -74.714600 5.348090 -0.000007 -0.000001 -56.330700 26.480800 -27.626800 24.328600 0.000019 0.000005 5.586150 11.032300 -27.072000 22.291600 -0.000001 0.000005 15.559800 5.167180 3.529100 12.994500 -0.242716 -4.980390 88.729700 9.082240 -82.003800 -5.348130 -0.000001 -0.000004 -64.243700 31.273800 -12.373600 -24.328900 0.000322 -0.000009 -0.338833 -0.764978 -23.821900 -22.291500 -0.000108 -0.000004 16.863600 5.410450 -3.280080 -2.192480 -6.469440 -0.000000 -177.106000 -11.440900 -12.055400 39.081100 -0.000007 -0.000012 -0.223351 0.305348 36.184600 40.985400 -0.000006 -0.000013 -2.563580 0.763491 -69.992300 11.754300 -0.000000 0.000003 -0.000134 -0.001319 -16.627800 -2.192510 6.469440 -0.000001 -178.600000 14.992600 156.083000 -39.081100 -0.002282 -0.040193 0.083035 -0.056424 54.739600 -40.985400 0.000008 0.000006 4.444340 -2.875790 -62.962200 -11.754300 -0.000006 -0.000006 -0.013707 -0.129512 -21.855300
0.000000 0.000000 0.000000 0.000000 0.000000 -0.000000 124.207000 89.837800 148.063000 92.101000 -45.170100 4.600350 15.735700 0.000005 -0.000001 84.126300 80.565100 -85.423400 8.984550 -0.406207 -0.000000 10.988300 -1.953050 -2.405040 16.377300 -0.000001 -0.000001 0.556268 -17.690900 2.897060 6.456720 -0.000001 -0.000000 -1.311850 -23.694600 9.172530 12.994200 -0.242716 4.980390 -90.629000 2.305930 -74.737800 5.348090 -0.000007 -0.000001 -55.042800 25.264000 -28.992700 24.328600 0.000019 0.000005 6.084480 11.018000 -29.149800 22.291600 -0.000001 0.000005 15.800500 5.172060 3.410350 12.994500 -0.242716 -4.980390 88.734100 9.100050 -82.046200 -5.348130 -0.000001 -0.000004 -64.918700 31.497600 -11.414200 -24.328900 0.000322 -0.000009 -0.237069 -0.563759 -22.704800 -22.291500 -0.000108 -0.000004 16.595600 5.401810 -2.996120 -2.192480 -6.469440 -0.000000 -177.087000 -12.398800 -10.652500 39.081100 -0.000007 -0.000012 -0.234107 0.333940 35.032700 40.985400 -0.000006 -0.000013 -2.831650 -0.034780 -70.783100 11.754300 -0.000000 0.000003 -0.000134 -0.001321 -16.627900 -2.192510 6.469440 -0.000001 -176.597000 17.065300 155.801000 -39.081100 -0.002282 -0.040193 0.049846 -0.045389 45.744700 -40.985400 0.000008 0.000006 3.722930 -0.425476 -62.934600 -11.754300 -0.000006 -0.000006 -0.014074 -0.131902 -21.953300
0.000000 0.000000 0.000000 0.000000 0.000000 -0.000000 123.277000 89.866800 149.362000 92.262200 -46.656000 4.112910 15.735700 0.000005 -0.000001 83.171600 80.704000 -84.449900 8.984550 -0.406207 -0.000000 10.676300 -2.227280 -2.347330 16.377300 -0.000001 -0.000001 0.231768 -17.294400 2.697810 6.456720 -0.000001 -0.000000 -1.457640 -23.148500 9.243140 12.994200 -0.242716 4.980390 -90.589900 2.166390 -74.763500 5.348090 -0.000007 -0.000001 -53.924100 24.095900 -29.784700 24.328600 0.000019 0.000005 6.593190 10.994700 -31.217400 22.291600 -0.000001 0.000005 16.210700 5.174390 3.353670 12.994500 -0.242716 -4.980390 88.732000 9.050370 -81.990100 -5.348130 -0.000001 -0.000004 -65.597500 31.617200 -10.700500 -24.328900 0.000322 -0.000009 0.008116 0.023571 -21.459200 -22.291500 -0.000108 -0.000004 16.123400 5.398250 -2.880500 -2.192480 -6.469440 -0.000000 -177.205000 -13.429800 -9.488710 39.081100 -0.000007 -0.000012 -0.233509 0.342957 34.250300 40.985400 -0.000006 -0.000013 -3.052590 -0.486790 -71.728600 11.754300 -0.000000 0.000003 -0.000151 -0.001463 -16.633100 -2.192510 6.469440 -0.000001 -174.500000 19.680800 155.537000 -39.081100 -0.002282 -0.040193 0.027153 -0.031904 36.799100 -40.985400 0.000008 0.000006 2.324360 2.346930 -62.436300 -11.754300 -0.000006 -0.000006 -0.014535 -0.134867 -22.074900
0.000000 0.000000 0.000000 0.000000 0.000000 -0.000000 122.151000 89.776000 150.638000 92.082400 -47.937300 3.408430 15.735700 0.000005 -0.000001 82.400400 80.802000 -83.588800 8.984550 -0.406207 -0.000000 10.450900 -2.444070 -2.152090 16.377300 -0.000001 -0.000001 -0.004972 -16.945900 2.503420 6.456720 -0.000001 -0.000000 -1.665590 -22.758300 9.443830 12.994200 -0.242716 4.980390 -90.554300 2.043130 -74.819000 5.348090 -0.000007 -0.000001 -53.036300 22.962500 -30.285500 24.328600 0.000019 0.000005 6.937660 10.808900 -32.977100 22.291600 -0.000001 0.000005 16.725300 5.180700 3.198560 12.994500 -0.242716 -4.980390 88.719700 9.186110 -82.030500 -5.348130 -0.000001 -0.000004 -66.040600 31.607000 -10.121100 -24.328900 0.000322 -0.000009 0.160878 0.433725 -20.478000 -22.291500 -0.000108 -0.000004 15.780700 5.394930 -2.773450 -2.192480 -6.469440 -0.000000 -176.969000 -14.363600 -8.435420 39.081100 -0.000007 -0.000012 -0.234589 0.349359 33.881200 40.985400 -0.000006 -0.000013 -3.377860 -0.765086 -72.912300 11.754300 -0.000000 0.000003 -0.000180 -0.001696 -16.641700 -2.192510 6.469440 -0.000001 -171.436000 21.870800 154.501000 -39.081100 -0.002282 -0.040193 0.049493 -0.078544 30.459800 -40.985400 0.000008 0.000006 8.083640 2.320560 -61.097200 -11.754300 -0.000006 -0.000006 -0.013960 -0.131163 -21.923000
0.000000 0.000000 0.000000 0.000000 0.000000 -0.000000 120.733000 89.523100 152.143000 92.166800 -48.917100 3.162710 15.735700 0.000005 -0.000001 81.666300 80.825600 -82.758200 8.984550 -0.406207 -0.000000 10.372500 -2.666310 -1.940570 16.377300 -0.000001 -0.000001 -0.190513 -16.696900 2.224700 6.456720 -0.000001 -0.000000 -1.925520 -22.547000 9.366000 12.994200 -0.242716 4.980390 -90.546800 2.024270 -74.880400 5.348090 -0.000007 -0.000001 -52.490800 22.078200 -30.517100 24.328600 0.000019 0.000005 7.094440 10.523100 -34.273500 22.291600 -0.000001 0.000005 17.121900 5.187530 3.030510 12.994500 -0.242716 -4.980390 88.722200 9.213980 -82.069700 -5.348130 -0.000001 -0.000004 -66.434800 31.543000 -9.637280 -24.328900 0.000322 -0.000009 0.206441 0.577538 -19.761400 -22.291500 -0.000108 -0.000004 15.617100 5.394090 -2.746120 -2.192480 -6.469440 -0.000000 -176.791000 -15.113700 -6.946130 39.081100 -0.000007 -0.000012 -0.242015 0.362512 33.727700 40.985400 -0.000006 -0.000013 -3.748210 -0.890234 -74.456300 11.754300 -0.000000 0.000003 -0.000187 -0.001747 -16.643600 -2.192510 6.469440 -0.000001 -170.354000 21.363500 153.828000 -39.081100 -0.002282 -0.040193 0.046250 -0.078545 28.667900 -40.985400 0.000008 0.000006 11.544800 -1.402030 -58.470800 -11.754300 -0.000006 -0.000006 -0.014350 -0.133687 -22.026500
